<svg width="274" height="67" viewBox="0 0 274 67" fill="none" xmlns="http://www.w3.org/2000/svg">
<g filter="url(#filter0_d_228_205)">
<rect width="268" height="61" rx="30.5" fill="#207178" shape-rendering="crispEdges"/>
<path d="M71.7093 18.7903C71.5743 18.6559 71.4038 18.5629 71.2178 18.5222C71.0318 18.4814 70.838 18.4946 70.6593 18.5603L48.6593 26.5603C48.4695 26.6322 48.3062 26.7602 48.1909 26.9272C48.0757 27.0942 48.0139 27.2923 48.0139 27.4953C48.0139 27.6982 48.0757 27.8963 48.1909 28.0633C48.3062 28.2303 48.4695 28.3583 48.6593 28.4303L57.2493 31.8603L63.5893 25.5003L64.9993 26.9103L58.6293 33.2803L62.0693 41.8703C62.1434 42.0563 62.2716 42.2159 62.4375 42.3282C62.6033 42.4405 62.799 42.5005 62.9993 42.5003C63.2014 42.4961 63.3974 42.4308 63.5617 42.313C63.7259 42.1952 63.8506 42.0304 63.9193 41.8403L71.9193 19.8403C71.9874 19.6633 72.0038 19.4707 71.9667 19.2848C71.9295 19.0989 71.8402 18.9274 71.7093 18.7903Z" fill="white"/>
<path d="M88.3461 38.18C87.2528 38.18 86.2261 38.0333 85.2661 37.74C84.3194 37.4467 83.5128 37.0267 82.8461 36.48L83.7261 34.6C84.4194 35.12 85.1394 35.5067 85.8861 35.76C86.6461 36 87.4728 36.12 88.3661 36.12C89.3528 36.12 90.1128 35.9467 90.6461 35.6C91.1928 35.2533 91.4661 34.7667 91.4661 34.14C91.4661 33.6067 91.2128 33.2 90.7061 32.92C90.2128 32.6267 89.3928 32.3533 88.2461 32.1C86.4594 31.7133 85.1594 31.2133 84.3461 30.6C83.5328 29.9867 83.1261 29.0933 83.1261 27.92C83.1261 27.08 83.3528 26.3333 83.8061 25.68C84.2594 25.0267 84.8994 24.5133 85.7261 24.14C86.5661 23.7667 87.5328 23.58 88.6261 23.58C89.6261 23.58 90.5728 23.7333 91.4661 24.04C92.3728 24.3333 93.1128 24.7467 93.6861 25.28L92.8261 27.16C91.5594 26.1467 90.1594 25.64 88.6261 25.64C87.7061 25.64 86.9794 25.8333 86.4461 26.22C85.9128 26.5933 85.6461 27.1067 85.6461 27.76C85.6461 28.32 85.8794 28.7467 86.3461 29.04C86.8261 29.3333 87.6394 29.6067 88.7861 29.86C89.9728 30.14 90.9394 30.4467 91.6861 30.78C92.4328 31.1 93.0061 31.52 93.4061 32.04C93.8061 32.5467 94.0061 33.1867 94.0061 33.96C94.0061 34.8133 93.7794 35.56 93.3261 36.2C92.8728 36.8267 92.2194 37.3133 91.3661 37.66C90.5128 38.0067 89.5061 38.18 88.3461 38.18ZM105.057 33.08H98.0972C98.1505 34.16 98.4172 34.96 98.8972 35.48C99.3905 35.9867 100.117 36.24 101.077 36.24C102.184 36.24 103.211 35.88 104.157 35.16L104.877 36.88C104.397 37.2667 103.804 37.58 103.097 37.82C102.404 38.0467 101.697 38.16 100.977 38.16C99.3238 38.16 98.0238 37.6933 97.0772 36.76C96.1305 35.8267 95.6572 34.5467 95.6572 32.92C95.6572 31.8933 95.8638 30.98 96.2772 30.18C96.6905 29.38 97.2705 28.76 98.0172 28.32C98.7638 27.8667 99.6105 27.64 100.557 27.64C101.944 27.64 103.037 28.0933 103.837 29C104.651 29.8933 105.057 31.1267 105.057 32.7V33.08ZM100.617 29.44C99.9505 29.44 99.4038 29.64 98.9772 30.04C98.5638 30.4267 98.2972 30.9933 98.1772 31.74H102.877C102.797 30.98 102.564 30.4067 102.177 30.02C101.804 29.6333 101.284 29.44 100.617 29.44ZM112.954 27.64C115.368 27.64 116.574 29.0267 116.574 31.8V38H114.074V31.92C114.074 31.12 113.921 30.54 113.614 30.18C113.308 29.8067 112.834 29.62 112.194 29.62C111.434 29.62 110.821 29.8667 110.354 30.36C109.888 30.84 109.654 31.48 109.654 32.28V38H107.174V30.76C107.174 29.6933 107.121 28.74 107.014 27.9H109.354L109.534 29.56C109.881 28.9467 110.348 28.4733 110.934 28.14C111.534 27.8067 112.208 27.64 112.954 27.64ZM128.885 23.28V38H126.425V36.38C126.118 36.94 125.678 37.38 125.105 37.7C124.532 38.0067 123.878 38.16 123.145 38.16C122.278 38.16 121.505 37.94 120.825 37.5C120.145 37.06 119.612 36.44 119.225 35.64C118.852 34.8267 118.665 33.9 118.665 32.86C118.665 31.82 118.852 30.9067 119.225 30.12C119.598 29.3333 120.125 28.7267 120.805 28.3C121.485 27.86 122.265 27.64 123.145 27.64C123.865 27.64 124.505 27.7933 125.065 28.1C125.638 28.3933 126.078 28.8133 126.385 29.36V23.28H128.885ZM123.805 36.2C124.632 36.2 125.272 35.9133 125.725 35.34C126.192 34.7667 126.425 33.9533 126.425 32.9C126.425 31.8467 126.198 31.0333 125.745 30.46C125.292 29.8867 124.652 29.6 123.825 29.6C122.985 29.6 122.332 29.8867 121.865 30.46C121.412 31.02 121.185 31.82 121.185 32.86C121.185 33.9133 121.412 34.7333 121.865 35.32C122.332 35.9067 122.978 36.2 123.805 36.2ZM151.156 23.76V38H148.876V29.16L145.096 38H143.396L139.596 29.26V38H137.316V23.76H139.356L144.256 34.9L149.116 23.76H151.156ZM162.928 33.08H155.968C156.022 34.16 156.288 34.96 156.768 35.48C157.262 35.9867 157.988 36.24 158.948 36.24C160.055 36.24 161.082 35.88 162.028 35.16L162.748 36.88C162.268 37.2667 161.675 37.58 160.968 37.82C160.275 38.0467 159.568 38.16 158.848 38.16C157.195 38.16 155.895 37.6933 154.948 36.76C154.002 35.8267 153.528 34.5467 153.528 32.92C153.528 31.8933 153.735 30.98 154.148 30.18C154.562 29.38 155.142 28.76 155.888 28.32C156.635 27.8667 157.482 27.64 158.428 27.64C159.815 27.64 160.908 28.0933 161.708 29C162.522 29.8933 162.928 31.1267 162.928 32.7V33.08ZM158.488 29.44C157.822 29.44 157.275 29.64 156.848 30.04C156.435 30.4267 156.168 30.9933 156.048 31.74H160.748C160.668 30.98 160.435 30.4067 160.048 30.02C159.675 29.6333 159.155 29.44 158.488 29.44ZM168.745 38.16C166.919 38.16 165.465 37.7333 164.385 36.88L165.085 35.12C166.165 35.92 167.399 36.32 168.785 36.32C169.385 36.32 169.845 36.22 170.165 36.02C170.499 35.82 170.665 35.54 170.665 35.18C170.665 34.8733 170.552 34.6333 170.325 34.46C170.099 34.2733 169.712 34.1133 169.165 33.98L167.485 33.6C165.645 33.2 164.725 32.26 164.725 30.78C164.725 30.1667 164.899 29.6267 165.245 29.16C165.592 28.68 166.079 28.3067 166.705 28.04C167.332 27.7733 168.059 27.64 168.885 27.64C169.605 27.64 170.299 27.7533 170.965 27.98C171.632 28.1933 172.219 28.5067 172.725 28.92L171.985 30.62C170.972 29.8733 169.932 29.5 168.865 29.5C168.292 29.5 167.845 29.6067 167.525 29.82C167.205 30.0333 167.045 30.3267 167.045 30.7C167.045 30.9933 167.139 31.2267 167.325 31.4C167.525 31.5733 167.859 31.72 168.325 31.84L170.045 32.22C171.045 32.4467 171.772 32.8 172.225 33.28C172.692 33.7467 172.925 34.36 172.925 35.12C172.925 36.0533 172.552 36.7933 171.805 37.34C171.059 37.8867 170.039 38.16 168.745 38.16ZM178.765 38.16C176.938 38.16 175.485 37.7333 174.405 36.88L175.105 35.12C176.185 35.92 177.418 36.32 178.805 36.32C179.405 36.32 179.865 36.22 180.185 36.02C180.518 35.82 180.685 35.54 180.685 35.18C180.685 34.8733 180.572 34.6333 180.345 34.46C180.118 34.2733 179.732 34.1133 179.185 33.98L177.505 33.6C175.665 33.2 174.745 32.26 174.745 30.78C174.745 30.1667 174.918 29.6267 175.265 29.16C175.612 28.68 176.098 28.3067 176.725 28.04C177.352 27.7733 178.078 27.64 178.905 27.64C179.625 27.64 180.318 27.7533 180.985 27.98C181.652 28.1933 182.238 28.5067 182.745 28.92L182.005 30.62C180.992 29.8733 179.952 29.5 178.885 29.5C178.312 29.5 177.865 29.6067 177.545 29.82C177.225 30.0333 177.065 30.3267 177.065 30.7C177.065 30.9933 177.158 31.2267 177.345 31.4C177.545 31.5733 177.878 31.72 178.345 31.84L180.065 32.22C181.065 32.4467 181.792 32.8 182.245 33.28C182.712 33.7467 182.945 34.36 182.945 35.12C182.945 36.0533 182.572 36.7933 181.825 37.34C181.078 37.8867 180.058 38.16 178.765 38.16ZM194.744 27.9V38H192.284V36.38C191.978 36.94 191.538 37.38 190.964 37.7C190.391 38.0067 189.738 38.16 189.004 38.16C188.124 38.16 187.344 37.9467 186.664 37.52C185.984 37.0933 185.458 36.4867 185.084 35.7C184.711 34.9133 184.524 34 184.524 32.96C184.524 31.92 184.711 31 185.084 30.2C185.471 29.3867 186.004 28.76 186.684 28.32C187.364 27.8667 188.138 27.64 189.004 27.64C189.738 27.64 190.391 27.8 190.964 28.12C191.538 28.4267 191.978 28.86 192.284 29.42V27.9H194.744ZM189.684 36.2C190.511 36.2 191.151 35.9133 191.604 35.34C192.058 34.7667 192.284 33.96 192.284 32.92C192.284 31.8533 192.058 31.0333 191.604 30.46C191.151 29.8867 190.504 29.6 189.664 29.6C188.838 29.6 188.191 29.9 187.724 30.5C187.271 31.0867 187.044 31.9067 187.044 32.96C187.044 34 187.271 34.8 187.724 35.36C188.191 35.92 188.844 36.2 189.684 36.2ZM207.227 27.9V37.68C207.227 39.2533 206.794 40.4467 205.927 41.26C205.061 42.0733 203.787 42.48 202.107 42.48C200.547 42.48 199.174 42.1533 197.987 41.5L198.387 39.6C199.614 40.24 200.834 40.56 202.047 40.56C203.847 40.56 204.747 39.6667 204.747 37.88V35.88C204.441 36.4267 203.994 36.8733 203.407 37.22C202.821 37.5533 202.161 37.72 201.427 37.72C200.547 37.72 199.761 37.5133 199.067 37.1C198.387 36.6733 197.854 36.08 197.467 35.32C197.094 34.5467 196.907 33.6667 196.907 32.68C196.907 31.6933 197.094 30.82 197.467 30.06C197.854 29.2867 198.387 28.6933 199.067 28.28C199.761 27.8533 200.547 27.64 201.427 27.64C202.174 27.64 202.834 27.8 203.407 28.12C203.994 28.4267 204.441 28.86 204.747 29.42V27.9H207.227ZM202.087 35.76C202.914 35.76 203.561 35.4867 204.027 34.94C204.507 34.3933 204.747 33.64 204.747 32.68C204.747 31.72 204.514 30.9667 204.047 30.42C203.581 29.8733 202.927 29.6 202.087 29.6C201.261 29.6 200.607 29.8733 200.127 30.42C199.661 30.9667 199.427 31.72 199.427 32.68C199.427 33.64 199.661 34.3933 200.127 34.94C200.607 35.4867 201.261 35.76 202.087 35.76ZM218.768 33.08H211.808C211.861 34.16 212.128 34.96 212.608 35.48C213.101 35.9867 213.828 36.24 214.788 36.24C215.895 36.24 216.921 35.88 217.868 35.16L218.588 36.88C218.108 37.2667 217.515 37.58 216.808 37.82C216.115 38.0467 215.408 38.16 214.688 38.16C213.035 38.16 211.735 37.6933 210.788 36.76C209.841 35.8267 209.368 34.5467 209.368 32.92C209.368 31.8933 209.575 30.98 209.988 30.18C210.401 29.38 210.981 28.76 211.728 28.32C212.475 27.8667 213.321 27.64 214.268 27.64C215.655 27.64 216.748 28.0933 217.548 29C218.361 29.8933 218.768 31.1267 218.768 32.7V33.08ZM214.328 29.44C213.661 29.44 213.115 29.64 212.688 30.04C212.275 30.4267 212.008 30.9933 211.888 31.74H216.588C216.508 30.98 216.275 30.4067 215.888 30.02C215.515 29.6333 214.995 29.44 214.328 29.44Z" fill="white"/>
</g>
<defs>
<filter id="filter0_d_228_205" x="0" y="0" width="274" height="67" filterUnits="userSpaceOnUse" color-interpolation-filters="sRGB">
<feFlood flood-opacity="0" result="BackgroundImageFix"/>
<feColorMatrix in="SourceAlpha" type="matrix" values="0 0 0 0 0 0 0 0 0 0 0 0 0 0 0 0 0 0 127 0" result="hardAlpha"/>
<feOffset dx="6" dy="6"/>
<feComposite in2="hardAlpha" operator="out"/>
<feColorMatrix type="matrix" values="0 0 0 0 0.12549 0 0 0 0 0.443137 0 0 0 0 0.470588 0 0 0 0.25 0"/>
<feBlend mode="normal" in2="BackgroundImageFix" result="effect1_dropShadow_228_205"/>
<feBlend mode="normal" in="SourceGraphic" in2="effect1_dropShadow_228_205" result="shape"/>
</filter>
</defs>
</svg>
