<svg width="37" height="37" viewBox="0 0 37 37" fill="none" xmlns="http://www.w3.org/2000/svg">
<g opacity="0.8">
<rect x="0.5" y="0.5" width="36" height="36" rx="18" stroke="white"/>
<path d="M15.1543 26C21.947 26 25.6629 20.2276 25.6629 15.2306C25.6629 15.069 25.6629 14.9052 25.6561 14.7437C26.3796 14.2066 27.0039 13.5416 27.5 12.7799C26.8242 13.0855 26.1081 13.2869 25.3749 13.3776C26.1472 12.9041 26.7257 12.1592 27.0028 11.2812C26.2771 11.7221 25.4829 12.0316 24.6549 12.1961C24.0982 11.5881 23.3616 11.1853 22.5591 11.0501C21.7566 10.915 20.9331 11.0549 20.216 11.4484C19.499 11.8419 18.9284 12.4668 18.5928 13.2265C18.2571 13.9862 18.1751 14.8382 18.3594 15.6506C16.891 15.575 15.4544 15.1838 14.1429 14.5022C12.8314 13.8207 11.6743 12.864 10.7465 11.6942C10.2755 12.5285 10.1318 13.5154 10.3445 14.4544C10.5572 15.3934 11.1104 16.2142 11.8917 16.7501C11.3062 16.7297 10.7336 16.5685 10.22 16.2794V16.3313C10.221 17.2053 10.5162 18.0521 11.0557 18.7286C11.5952 19.4051 12.346 19.8698 13.181 20.0442C12.864 20.1337 12.5366 20.1784 12.2079 20.1768C11.9761 20.1776 11.7448 20.1555 11.5171 20.1111C11.7531 20.8634 12.2127 21.5212 12.8314 21.9923C13.4501 22.4634 14.197 22.7242 14.9675 22.7383C13.6586 23.7926 12.0418 24.3644 10.3775 24.3616C10.0842 24.3629 9.79118 24.3456 9.5 24.3097C11.1892 25.4142 13.151 26.0006 15.1543 26Z" fill="white"/>
</g>
</svg>
