<svg width="37" height="37" viewBox="0 0 37 37" fill="none" xmlns="http://www.w3.org/2000/svg">
<g opacity="0.8">
<rect x="0.5" y="0.5" width="36" height="36" rx="18" stroke="white"/>
<path d="M23.5 10.5H13.5C12.0833 10.5 11 11.6556 11 13.1667V23.8333C11 25.3444 12.0833 26.5 13.5 26.5H23.5C24.9167 26.5 26 25.3444 26 23.8333V13.1667C26 11.6556 24.9167 10.5 23.5 10.5ZM18.5 15.8333C19.9167 15.8333 21 16.9889 21 18.5C21 20.0111 19.9167 21.1667 18.5 21.1667C17.0833 21.1667 16 20.0111 16 18.5C16 16.9889 17.0833 15.8333 18.5 15.8333ZM21.6667 14.0556C21.6667 13.4333 22.1667 12.9889 22.6667 12.9889C23.1667 12.9889 23.6667 13.5222 23.6667 14.0556C23.6667 14.5889 23.25 15.1222 22.6667 15.1222C22.0833 15.1222 21.6667 14.6778 21.6667 14.0556ZM23.5 24.7222H13.5C13 24.7222 12.6667 24.3667 12.6667 23.8333V18.5H14.3333C14.3333 20.9889 16.1667 22.9444 18.5 22.9444C20.8333 22.9444 22.6667 20.9889 22.6667 18.5H24.3333V23.8333C24.3333 24.3667 24 24.7222 23.5 24.7222Z" fill="white"/>
</g>
</svg>
