<svg width="37" height="37" viewBox="0 0 37 37" fill="none" xmlns="http://www.w3.org/2000/svg">
<g opacity="0.8">
<rect x="0.5" y="0.5" width="36" height="36" rx="18" stroke="white"/>
<path d="M24.388 23.1522H23.2812V22.5C23.2812 22.1522 23.4583 21.9783 23.8125 21.9783H23.8568C24.2109 21.9783 24.388 22.1522 24.388 22.5V23.1522ZM20.1823 21.7609C19.8281 21.7609 19.651 21.9058 19.651 22.1957V25.2826C19.651 25.5725 19.8281 25.7174 20.1823 25.7174C20.5365 25.7174 20.7135 25.5725 20.7135 25.2826V22.1957C20.7135 21.9058 20.5365 21.7609 20.1823 21.7609ZM27 20.0217V25.9348C27 26.6594 26.727 27.2681 26.181 27.7609C25.635 28.2536 24.9783 28.5 24.2109 28.5H12.7891C12.0217 28.5 11.365 28.2536 10.819 27.7609C10.273 27.2681 10 26.6594 10 25.9348V20.0217C10 19.3261 10.273 18.7246 10.819 18.2174C11.365 17.7101 12.0217 17.4565 12.7891 17.4565H24.2109C24.9783 17.4565 25.635 17.7101 26.181 18.2174C26.727 18.7246 27 19.3261 27 20.0217ZM13.5417 26.587V20.3696H14.9583V19.4565L11.1953 19.413V20.3261H12.3464V26.587H13.5417ZM17.7917 21.2826H16.5964V25.413C16.5373 25.558 16.434 25.6522 16.2865 25.6957C16.1389 25.7391 16.0208 25.6594 15.9323 25.4565V24.6304L15.888 21.2826H14.737V25.6304C14.796 26.1232 14.8993 26.413 15.0469 26.5C15.3125 26.6739 15.6445 26.6812 16.043 26.5217C16.4414 26.3623 16.7144 26.1522 16.862 25.8913V26.587H17.7917V21.2826ZM21.5547 25.1087V22.3261C21.5547 21.7754 21.3776 21.3986 21.0234 21.1957C20.6693 20.9928 20.2266 21.0942 19.6953 21.5V19.4565H18.5V26.5435H19.474L19.5625 26.0652C20.1823 26.587 20.6766 26.7319 21.0456 26.5C21.4145 26.2681 21.5842 25.8043 21.5547 25.1087ZM25.2734 24.7174H24.388V25.3261C24.388 25.6449 24.2257 25.8043 23.901 25.8043H23.724C23.3993 25.8043 23.237 25.6449 23.237 25.3261V24.0652H25.2734V23.3261C25.2734 22.5725 25.2587 22.0942 25.2292 21.8913C25.1406 21.4275 24.8233 21.1377 24.2773 21.0217C23.7313 20.9058 23.2812 20.9783 22.9271 21.2391C22.691 21.442 22.5286 21.6594 22.4401 21.8913C22.3516 22.1812 22.3073 22.5725 22.3073 23.0652V24.7174C22.3073 25.7899 22.7205 26.413 23.5469 26.587C24.2552 26.7319 24.7717 26.5 25.0964 25.8913C25.303 25.5725 25.362 25.1812 25.2734 24.7174ZM20.7135 15.7609C20.7726 15.9058 20.8759 16.0217 21.0234 16.1087C21.1415 16.1957 21.3038 16.2391 21.5104 16.2391C21.6875 16.2391 21.8351 16.1957 21.9531 16.1087C22.0712 16.0217 22.1745 15.8913 22.263 15.7174V16.1522H23.5911V10.6304H22.5286V14.9348C22.5286 15.2246 22.3811 15.3696 22.0859 15.3696C21.8203 15.3696 21.6875 15.2246 21.6875 14.9348V10.6304H20.5807V14.3696C20.5807 14.8913 20.5955 15.2101 20.625 15.3261C20.625 15.442 20.6545 15.587 20.7135 15.7609ZM16.7292 12.6739C16.7292 12.1522 16.7734 11.7319 16.862 11.413C16.9505 11.1522 17.1128 10.9203 17.349 10.7174C17.5851 10.5435 17.8802 10.4565 18.2344 10.4565C18.559 10.4565 18.8247 10.5145 19.0312 10.6304C19.2378 10.7174 19.4002 10.8623 19.5182 11.0652C19.6363 11.2101 19.7248 11.3986 19.7839 11.6304C19.8134 11.7754 19.8281 12.0797 19.8281 12.5435V13.9348C19.8281 14.5145 19.8134 14.8913 19.7839 15.0652C19.7543 15.2681 19.6658 15.4855 19.5182 15.7174C19.4297 15.8623 19.2674 16.0217 19.0312 16.1957C18.7951 16.2826 18.559 16.3261 18.3229 16.3261C18.0278 16.3261 17.7622 16.2826 17.526 16.1957C17.3194 16.1087 17.1571 15.9783 17.0391 15.8043C16.921 15.5725 16.8472 15.3696 16.8177 15.1957C16.7587 14.9058 16.7292 14.5435 16.7292 14.1087V12.6739ZM17.7474 14.8478C17.7474 14.9928 17.799 15.1232 17.9023 15.2391C18.0056 15.3551 18.1311 15.413 18.2786 15.413C18.6328 15.413 18.8099 15.2246 18.8099 14.8478V11.9348C18.8099 11.558 18.6328 11.3696 18.2786 11.3696C17.9245 11.3696 17.7474 11.558 17.7474 11.9348V14.8478ZM14.1172 16.3261H15.3568V12.1087L16.8177 8.5H15.4896L14.6927 11.1957L13.8958 8.5H12.5677L14.1172 12.1087V16.3261Z" fill="white"/>
</g>
</svg>
